<svg width="1143" height="901" viewBox="0 0 1143 901" fill="none" xmlns="http://www.w3.org/2000/svg">
<path d="M948.5 188L1011.5 8L1171.5 82L1178.5 352L938.5 525" stroke="#DBB98D" stroke-width="8"/>
<path d="M905.625 591.875L1172.37 361.327L1257.25 232.508L1232.29 83.7173L1146.41 4.82812H1009.6L906.746 89.7089" stroke="#DBB98D" stroke-width="8"/>
<path d="M946.5 191L1142.5 81" stroke="#DBB98D" stroke-width="8"/>
<path d="M946.51 192.724L1154.75 210" stroke="#DBB98D" stroke-width="8"/>
<path d="M895.522 359L1177.52 210" stroke="#DBB98D" stroke-width="8"/>

<path d="M1206.74 175.039L933.969 528.093" stroke="#DBB98D" stroke-width="8"/>
<path d="M895.523 354.336L938 529.5" stroke="#E72419" stroke-width="8"/>
<path d="M910.002 594.001L659.354 353.339L571.478 255.476V103.689L671.337 4.82812H807.146L909 85" stroke="#E72419" stroke-width="8"/>
<path d="M573.475 104.687L660.353 59.7503L806.148 7.82324L948.5 192M934.967 527.094L830.114 489.147L655.36 345.848V293.422L573.475 253.875" stroke="#E72419" stroke-width="8"/>
<path d="M951.5 192.5L896.022 357.333M896.022 357.333L831.113 486.152L653.363 291.426L896.022 357.333Z" stroke="#E72419" stroke-width="8"/>
<path d="M701.295 167.599L895.522 355.834" stroke="#E72419" stroke-width="8"/>
<path d="M908 84L951.5 196" stroke="#E72419" stroke-width="8"/>
<path d="M674.833 2.83008L660.353 56.7543M660.353 56.7543L582.2 242.692L702.294 170.594L660.353 56.7543Z" stroke="#E72419" stroke-width="8"/>
<path d="M655.36 293.422L701.296 169.596L952.5 194M1184.62 66.7401L1152.66 6.82422" stroke="#E72419" stroke-width="8"/>
<path d="M829.616 488.647L910.625 592.625" stroke="#E72419" stroke-width="8"/>
<path d="M906.75 591.125L937.5 526.5" stroke="#E72419" stroke-width="8"/>
<path d="M660.5 60L952.5 194" stroke="#E72419" stroke-width="8"/>
</svg>
